<svg xmlns="http://www.w3.org/2000/svg" width="8.991" height="9.981" viewBox="84.008 8.008 8.991 9.981"><path d="m92.907 12.768-4.338-4.66a.343.343 0 0 0-.08-.064.267.267 0 0 0-.134-.036.274.274 0 0 0-.18.068.383.383 0 0 0-.034.032l-.465.5a.327.327 0 0 0-.093.23.327.327 0 0 0 .093.23l3.658 3.93-3.658 3.93a.348.348 0 0 0-.072.112.326.326 0 0 0-.021.119.329.329 0 0 0 .086.223.42.42 0 0 0 .007.007l.465.5a.34.34 0 0 0 .077.063.266.266 0 0 0 .137.037.274.274 0 0 0 .183-.07.383.383 0 0 0 .031-.03l4.338-4.66a.325.325 0 0 0 .093-.23.33.33 0 0 0-.093-.231Zm-3.482.23a.327.327 0 0 0-.087-.224.411.411 0 0 0-.006-.006l-4.337-4.66a.348.348 0 0 0-.079-.064.267.267 0 0 0-.135-.036.275.275 0 0 0-.183.07.386.386 0 0 0-.031.03l-.466.5a.328.328 0 0 0-.093.23.328.328 0 0 0 .093.23l3.658 3.93-3.658 3.93a.352.352 0 0 0-.072.116.324.324 0 0 0-.02.115c0 .086.03.163.092.23l.466.5a.341.341 0 0 0 .077.063.267.267 0 0 0 .137.037.273.273 0 0 0 .178-.066.383.383 0 0 0 .036-.034l4.337-4.66a.323.323 0 0 0 .093-.23Z" fill="#727272" fill-rule="evenodd" data-name="angle_right"/></svg>