<svg xmlns="http://www.w3.org/2000/svg" width="15.985" height="16" viewBox="2.006 1.999 15.985 16"><path d="m9.999 2-7.77 6.857a.657.657 0 0 0-.215.397.661.661 0 0 0 .15.528c.22.258.596.298.864.102a.654.654 0 0 0 .046-.037l.286-.253v6.44c0 1.085.866 1.965 1.934 1.965h3.61v-5.274c0-.632.504-1.146 1.127-1.146a1.137 1.137 0 0 1 1.128 1.146V18h3.545a1.95 1.95 0 0 0 1.934-1.965v-6.44l.286.253c.253.223.627.21.865-.019a.659.659 0 0 0 .044-.046.658.658 0 0 0 .152-.339.66.66 0 0 0-.216-.586L10 2Zm4.705 14.69a.65.65 0 0 0 .645-.656V8.456l-5.35-4.722-5.35 4.722v7.578a.65.65 0 0 0 .645.655h2.32v-3.964a2.437 2.437 0 0 1 2.417-2.456c1.335 0 2.417 1.1 2.417 2.456v3.964h2.256Z" fill="#727272" fill-rule="evenodd" data-name="home_icon"/></svg>